<?xml version="1.0" standalone="no"?>
<!DOCTYPE svg PUBLIC "-//W3C//DTD SVG 20010904//EN"
 "http://www.w3.org/TR/2001/REC-SVG-20010904/DTD/svg10.dtd">
<svg version="1.0" xmlns="http://www.w3.org/2000/svg"
 width="300.000000pt" height="300.000000pt" viewBox="0 0 300.000000 300.000000"
 preserveAspectRatio="xMidYMid meet">
<metadata>
Created by potrace 1.10, written by Peter Selinger 2001-2011
</metadata>
<g transform="translate(0.000000,300.000000) scale(0.050000,-0.050000)"
fill="#ff2600" stroke="none">
<path d="M486 5980 c-268 -39 -445 -243 -476 -547 -18 -182 41 -156 208 92 40
59 119 132 208 192 145 98 254 208 254 257 0 28 -34 29 -194 6z"/>
<path d="M5320 5973 c0 -49 99 -151 232 -241 80 -54 158 -130 218 -213 91
-126 183 -219 217 -219 69 0 -42 387 -145 505 -115 130 -522 261 -522 168z"/>
<path d="M1121 5149 c-190 -34 -316 -82 -342 -131 -11 -21 -33 -38 -48 -38
-15 0 -32 -11 -38 -25 -7 -19 -10 -19 -11 1 -9 137 -542 -487 -542 -634 0 -23
-9 -42 -20 -42 -63 0 -20 -254 57 -342 79 -89 237 -126 259 -61 4 13 16 23 27
23 11 0 13 -10 6 -22 -23 -36 52 11 148 93 47 41 94 97 105 123 10 27 27 43
38 36 11 -7 20 2 20 19 0 17 16 31 35 32 37 0 110 47 96 61 -4 4 12 9 36 10
24 1 105 13 181 26 159 27 281 14 372 -41 l63 -38 -6 -259 c-9 -338 -15 -345
-293 -362 -232 -14 -454 -113 -410 -184 7 -12 2 -14 -12 -5 -16 9 -32 -7 -47
-47 -13 -34 -31 -62 -39 -62 -9 0 -16 -49 -16 -110 0 -60 9 -110 20 -110 11 0
20 -18 20 -40 0 -52 138 -205 173 -192 15 6 27 2 27 -10 0 -38 141 -79 306
-90 238 -15 248 -19 276 -97 14 -38 34 -63 45 -57 12 8 14 -19 6 -72 -8 -50
-6 -80 4 -74 28 17 42 -61 43 -224 0 -108 -7 -148 -29 -156 -15 -6 -25 -29
-21 -50 5 -22 1 -35 -7 -30 -8 5 -36 -24 -63 -65 -28 -40 -55 -77 -62 -83 -6
-5 -22 -28 -34 -50 -13 -22 -23 -29 -23 -15 -1 19 -12 19 -52 1 -31 -14 -42
-28 -28 -37 26 -16 -76 -24 -296 -24 -234 0 -300 11 -336 55 -17 22 -26 29
-19 15 7 -14 3 -25 -7 -25 -11 0 -26 18 -33 41 -7 22 -25 38 -40 35 -15 -4
-29 3 -31 14 -6 32 -240 172 -263 157 -13 -8 -16 -4 -8 10 15 23 -8 31 -75 24
-22 -3 -32 4 -24 17 9 15 -23 22 -98 22 l-111 0 0 -82 c0 -67 6 -80 32 -70 60
23 181 -27 356 -149 374 -259 655 -321 967 -212 440 153 592 757 319 1261
l-64 118 -240 2 c-294 3 -412 45 -461 161 -93 222 177 357 610 307 166 -20
328 619 212 844 -186 363 -790 348 -1120 -28 -219 -249 -363 -276 -346 -64 55
685 1106 1079 1865 700 558 -278 613 -1051 111 -1549 l-153 -152 91 -63 c457
-315 626 -941 379 -1405 -435 -816 -2061 -915 -2499 -152 l-59 103 0 -165 c0
-133 6 -165 30 -165 17 0 28 -11 25 -25 -3 -14 6 -23 20 -20 14 3 25 -9 25
-26 0 -19 9 -26 23 -17 14 8 18 5 10 -7 -27 -44 245 -225 339 -225 44 0 68
-13 84 -45 12 -25 22 -34 23 -20 2 40 75 29 86 -13 29 -109 681 -135 1039 -40
53 13 71 28 63 49 -14 36 65 41 80 4 6 -15 16 -7 24 20 8 25 27 45 43 45 15 0
23 -9 16 -20 -7 -11 -2 -20 11 -20 12 0 27 18 33 40 6 22 25 40 43 40 29 -1
29 -3 3 -20 -76 -49 19 -13 132 50 129 72 382 297 373 331 -3 10 6 17 18 14
28 -6 196 259 197 310 0 19 9 35 20 35 11 0 20 26 20 59 0 32 9 64 20 71 12 7
20 123 20 280 0 157 -8 273 -20 280 -11 7 -20 44 -20 82 0 42 -8 65 -20 58
-11 -7 -20 7 -20 31 0 57 -146 321 -198 358 -22 15 -35 36 -30 45 6 9 -4 16
-21 16 -17 0 -31 10 -31 21 0 26 -51 81 -64 69 -4 -5 -8 16 -7 46 1 30 17 66
36 80 19 15 35 35 35 46 0 11 18 39 39 62 22 23 35 50 29 59 -6 9 0 17 12 17
12 0 17 8 11 18 -6 10 2 23 17 29 25 9 103 185 119 270 4 18 18 60 31 93 78
190 -23 715 -162 847 -29 28 -50 56 -46 64 14 22 -165 184 -188 170 -12 -7
-28 0 -34 18 -7 17 -20 26 -30 20 -10 -7 -23 2 -30 18 -6 17 -24 26 -40 20
-17 -7 -28 1 -28 19 0 118 -671 210 -1039 143z m493 -1234 c-4 -36 -8 -11 -8
55 0 66 4 95 8 65 5 -30 5 -84 0 -120z"/>
<path d="M4110 5098 c-85 -44 -210 -161 -210 -197 0 -11 -9 -21 -20 -21 -11 0
-19 -7 -18 -15 8 -47 -4 -93 -18 -71 -18 28 -184 -291 -184 -352 0 -21 -13
-43 -28 -49 -17 -6 -25 -27 -19 -50 6 -21 1 -45 -11 -52 -12 -7 -22 -34 -22
-60 0 -26 -12 -51 -28 -57 -17 -7 -24 -31 -18 -67 6 -37 3 -48 -9 -32 -21 30
-185 -529 -185 -631 0 -37 -8 -61 -18 -55 -10 6 -23 -32 -28 -84 -6 -52 -21
-140 -33 -195 -12 -55 -28 -149 -35 -210 -8 -71 -17 -97 -25 -73 -8 22 -24
-44 -39 -160 -14 -108 -34 -246 -45 -307 -32 -182 -46 -973 -19 -1103 46 -220
208 -396 381 -412 104 -10 243 25 236 59 -3 12 6 25 20 30 14 5 25 0 25 -10 0
-13 19 -11 50 3 27 13 50 30 50 38 0 8 13 15 28 15 40 0 196 182 183 214 -5
14 4 26 21 26 17 0 25 9 17 21 -7 11 -2 33 10 48 12 15 21 34 19 44 -7 41 6
175 15 152 6 -14 23 -25 39 -25 15 0 28 -10 28 -21 0 -12 -8 -16 -19 -10 -10
6 -24 2 -31 -9 -7 -12 -6 -20 4 -18 46 8 86 -5 86 -28 0 -36 248 -303 328
-353 65 -40 132 -60 72 -21 -26 17 -25 19 5 20 22 0 35 -15 35 -40 0 -22 10
-40 21 -40 12 0 15 11 7 23 -10 16 -3 20 20 10 20 -7 40 -13 45 -13 5 0 4 -8
-2 -18 -6 -10 3 -23 20 -30 18 -6 26 -3 19 8 -8 13 48 20 150 20 92 0 158 -8
151 -18 -6 -10 7 -14 28 -8 22 6 38 21 35 33 -2 13 23 26 56 29 46 4 53 1 30
-15 -23 -16 -24 -20 -3 -21 15 0 31 18 37 40 7 24 27 40 53 40 35 -1 38 -4 13
-20 -80 -52 26 -11 123 46 160 97 214 140 228 179 6 19 23 35 36 35 13 0 54
36 90 79 36 43 83 85 104 91 35 12 39 32 39 216 l-1 204 -74 -135 c-260 -470
-834 -742 -1194 -567 -216 106 -419 394 -602 853 -52 132 -98 237 -102 233 -3
-4 -16 -204 -27 -445 -11 -242 -25 -458 -30 -481 -38 -169 -463 -337 -604
-238 -295 207 -26 2225 442 3319 242 567 403 692 613 474 299 -311 280 -564
-84 -1103 l-198 -292 -31 -206 c-36 -245 -31 -257 47 -118 381 673 1426 549
1425 -170 -1 -362 -433 -734 -853 -734 l-65 0 37 -106 c209 -608 599 -598
1096 30 49 63 116 126 148 140 99 44 84 166 -18 149 -41 -7 -85 -26 -97 -43
-12 -16 -32 -30 -44 -30 -25 0 -232 -236 -250 -285 -7 -20 -29 -42 -49 -49
-19 -7 -68 -40 -109 -73 -53 -42 -104 -62 -175 -68 -55 -6 -95 -18 -89 -28 12
-20 3 -21 -40 -5 -18 7 -28 19 -23 27 5 8 -12 26 -37 40 -83 44 -102 118 -37
142 135 49 161 64 181 105 12 24 22 33 23 19 2 -41 37 -29 52 18 10 33 17 36
31 15 10 -17 18 -19 18 -5 0 12 22 28 48 35 68 17 313 286 297 327 -8 21 -4
27 12 17 15 -10 23 3 23 37 0 28 9 51 20 51 11 0 20 17 20 39 0 21 7 43 15 48
34 21 -2 493 -37 493 -10 0 -18 23 -18 51 0 29 -9 46 -20 39 -11 -7 -20 5 -20
25 0 54 -177 225 -234 225 -26 0 -46 12 -46 28 0 18 -14 25 -40 18 -22 -6 -40
-1 -40 12 0 12 -25 22 -56 22 -31 0 -72 11 -91 25 -23 17 -81 22 -185 15 -84
-6 -156 -3 -162 6 -5 9 -27 1 -47 -17 -23 -21 -57 -30 -87 -24 -31 5 -54 -1
-60 -18 -6 -15 -20 -27 -31 -27 -42 0 -19 78 54 191 41 64 72 132 69 152 -4
23 5 37 24 37 18 0 26 12 20 28 -6 15 -1 34 11 41 11 7 21 35 21 61 0 26 8 53
18 59 23 14 24 327 1 370 -26 51 -52 124 -56 162 -2 12 -12 16 -23 9 -11 -7
-20 7 -20 30 0 55 -214 271 -308 310 -95 40 -148 38 -242 -12z"/>
<path d="M4510 2983 c-96 -58 -240 -231 -349 -419 l-101 -174 52 -7 c230 -28
664 182 730 353 83 214 -129 371 -332 247z m138 -166 c31 -36 32 -41 4 -31
-24 10 -32 1 -32 -37 0 -35 -11 -49 -38 -49 -21 0 -43 -13 -49 -30 -11 -27
-114 -37 -112 -11 1 21 61 91 75 88 8 -1 32 10 53 25 22 16 33 28 25 28 -9 0
-4 13 10 29 14 16 26 30 27 30 0 1 17 -18 37 -42z"/>
<path d="M11 555 c32 -311 227 -509 535 -543 l117 -13 -37 63 c-20 34 -101
113 -181 175 -83 63 -182 165 -230 233 -168 239 -222 262 -204 85z"/>
<path d="M5900 627 c-34 -29 -98 -105 -141 -169 -44 -64 -143 -168 -220 -231
-78 -62 -155 -139 -171 -170 l-29 -58 115 13 c308 34 503 232 535 543 15 141
4 150 -89 72z"/>
</g>
</svg>
